# xmcd CD database file
#
# Track frame offsets:
#	150
#	24335
#	44354
#	68010
#	90273
#	120881
#	144007
#	172093
#	197727
#	218123
#	242378
#	268402
#
# Disc length: 3850 seconds
#
# Revision: 3
# Processed by: cddbd v1.5PL3 Copyright (c) Steve Scherf et al.
# Submitted via: CDex 1.50
#
DISCID=990f080c
DTITLE=Oliver Mtukudzi - Tsivo [Revenge]
DYEAR=2003
DGENRE=Other
TTITLE0=Hariputirwe
TTITLE1=Chara Chimwe
TTITLE2=Totutuma
TTITLE3=Dama Rinetapira
TTITLE4=Wagona Fani
TTITLE5=Changu Chii?
TTITLE6=Ungamugone
TTITLE7=Pawatsiurwa
TTITLE8=Vanereva Nepasipo
TTITLE9=Budiriro
TTITLE10=Pakasimbwi
TTITLE11=Unetyei?
EXTD=YEAR: 2003
EXTT0=
EXTT1=
EXTT2=
EXTT3=
EXTT4=
EXTT5=
EXTT6=
EXTT7=
EXTT8=
EXTT9=
EXTT10=
EXTT11=
PLAYORDER=
